<svg width="32" height="32" viewBox="0 0 32 32" fill="none" xmlns="http://www.w3.org/2000/svg">
<path d="M29.5 19.8214C29.5 19.8214 28.2587 18.4926 26.2416 18.6568C24.2265 18.8248 23.2538 20.0123 23.2538 21.2056C23.2538 24.6804 29.5 22.271 29.5 25.8374C29.5 27.674 25.3564 28.9723 22.8878 26.8111M26.4298 16.56V18.48M26.4298 28.08V30M29.3082 13.7639C28.089 6.50084 21.2723 1.55611 13.9896 2.65202C6.70688 3.74793 1.64731 10.4798 2.61962 17.7801C3.59193 25.0803 10.2371 30.2533 17.5528 29.4048M3.40097 11.4995H28.5944M3.40097 20.4972H18.2471M15.2479 2.50187C10.0936 10.7614 10.0936 21.2353 15.2479 29.4948M16.7475 2.50187C19.2804 6.55838 20.6201 11.246 20.6135 16.0283" stroke="#020304" style="stroke:#020304;stroke:color(display-p3 0.0078 0.0118 0.0157);stroke-opacity:1;" stroke-width="1.4" stroke-linecap="round" stroke-linejoin="round"/>
</svg>
