<svg width="32" height="32" viewBox="0 0 32 32" fill="none" xmlns="http://www.w3.org/2000/svg">
<g clip-path="url(#clip0_2728_3510)">
<path d="M27.0336 12.5122C27.0336 10.7317 27.0336 8.06405 27.0336 4.50306C27.0336 3.3968 26.1369 2.5 25.0306 2.5L7.00306 2.5C5.89681 2.5 5 3.3968 5 4.50306V26.5367C5 27.643 5.89681 28.5397 7.00306 28.5397C9.89636 28.5397 9.5671 28.5397 11.0138 28.5397M11.0092 8.49443H21.0245M11.0092 15.5198H16.0168M21.12 23.88L27 18L29 20M24.75 20.25L26.5 22M19 29C20.6568 29 22 27.6569 22 26C22 24.3432 20.6568 23 19 23C17.3432 23 16 24.3432 16 26C16 27.6569 17.3432 29 19 29Z" stroke="#020304" style="stroke:#020304;stroke:color(display-p3 0.0078 0.0118 0.0157);stroke-opacity:1;" stroke-width="1.4" stroke-linecap="round" stroke-linejoin="round"/>
</g>
<defs>
<clipPath id="clip0_2728_3510">
<rect width="32" height="32" fill="white" style="fill:white;fill-opacity:1;"/>
</clipPath>
</defs>
</svg>
