<svg width="32" height="32" viewBox="0 0 32 32" fill="none" xmlns="http://www.w3.org/2000/svg">
<path fill-rule="evenodd" clip-rule="evenodd" d="M14 1C15.2376 0.28547 16.7624 0.285473 18 1L27.9902 6.76758C29.2277 7.48205 29.9901 8.80253 29.9902 10.2314V21.7676C29.9902 23.1966 29.2278 24.5169 27.9902 25.2314L18 31C16.7624 31.7144 15.2375 31.7145 14 31L4.00977 25.2314C2.77226 24.5169 2.00977 23.1966 2.00977 21.7676V10.2314C2.0099 8.80253 2.77227 7.48205 4.00977 6.76758L14 1ZM22.3125 12.0918C21.9491 11.505 21.1787 11.3232 20.5918 11.6865L16 14.5283L11.4082 11.6865C10.8213 11.3233 10.0509 11.5049 9.6875 12.0918L9.62207 12.2119C9.35037 12.78 9.54429 13.4733 10.0918 13.8125L14.75 16.6943V22C14.7501 22.6902 15.3098 23.2499 16 23.25C16.6903 23.25 17.2499 22.6902 17.25 22V16.6953L21.9082 13.8125C22.4951 13.4491 22.6758 12.6787 22.3125 12.0918Z" fill="#020304" style="fill:#020304;fill:color(display-p3 0.0078 0.0118 0.0157);fill-opacity:1;"/>
</svg>
