<svg width="32" height="32" viewBox="0 0 32 32" fill="none" xmlns="http://www.w3.org/2000/svg">
<circle cx="16" cy="16" r="16" fill="#21D55A" style="fill:#21D55A;fill:color(display-p3 0.1294 0.8353 0.3529);fill-opacity:1;"/>
<path d="M13.45 6.07383C13.6329 5.97883 13.85 5.97526 14.0358 6.06455C14.2215 6.15312 14.355 6.32384 14.3965 6.52598L15.53 12.2224C15.6179 12.6639 15.1086 12.9789 14.7479 12.7053L14.4372 12.4696C13.9686 12.1139 13.4793 11.7846 12.9729 11.4846L10.1507 17.616C9.91216 18.1332 9.78859 18.696 9.78859 19.2653C9.78859 21.4553 11.5772 23.2311 13.7829 23.2311H18.3186C19.9951 23.2311 21.3544 21.8818 21.3544 20.2175C21.3544 18.5532 19.9951 17.2039 18.3186 17.2039H15.8586C15.49 17.2053 15.1365 17.0603 14.875 16.8003C14.6136 16.541 14.4658 16.1882 14.4643 15.8196C14.4643 15.0553 15.0886 14.4346 15.8586 14.4346H18.5643C19.0629 14.4367 19.5422 14.2403 19.8958 13.8889C20.2501 13.5374 20.4494 13.0603 20.4515 12.5617C20.4501 12.0632 20.2501 11.5853 19.8958 11.2339C19.5422 10.8824 19.0629 10.686 18.5643 10.6881H18.3186C17.9501 10.6896 17.5965 10.5446 17.3351 10.2846C17.0736 10.0253 16.9258 9.67242 16.9243 9.30385C16.9243 8.53885 17.5486 7.91884 18.3186 7.91884H18.5643C21.1465 7.91884 23.2401 9.99743 23.2401 12.5617C23.2408 13.7374 22.7929 14.8696 21.9865 15.7253C23.3501 16.8182 24.1429 18.471 24.1429 20.2182C24.1429 23.4104 21.5358 26.0004 18.3193 26.0004H13.7829C10.0364 26.0004 7 22.9846 7 19.2646C7 18.2989 7.20929 17.3432 7.61429 16.4646L10.4586 10.286C9.94573 10.0967 9.42358 9.93457 8.8943 9.80028L8.35429 9.66242C8.15715 9.61314 8.01143 9.44671 7.98786 9.24528C7.96429 9.04314 8.06858 8.84813 8.24929 8.75528L13.45 6.07383Z" fill="white" style="fill:white;fill-opacity:1;"/>
</svg>
