<svg width="32" height="32" viewBox="0 0 32 32" fill="none" xmlns="http://www.w3.org/2000/svg">
<path fill-rule="evenodd" clip-rule="evenodd" d="M0 16C0 24.8252 7.17467 32.0001 16 32.0001C24.8252 32.0001 32 24.8252 32 16C32 7.17475 24.8252 0 16 0C7.17467 0 0 7.17475 0 16Z" fill="#F00500" style="fill:#F00500;fill:color(display-p3 0.9412 0.0196 0.0000);fill-opacity:1;"/>
<path d="M21.5695 8.11277C20.9448 8.73028 20.3726 9.39955 19.8639 10.1132L19.7031 10.0614C18.7755 9.76192 17.8142 9.57704 16.8455 9.51418C16.5537 9.49199 15.4653 9.49199 15.11 9.51418C14.0365 9.58443 13.2136 9.74343 12.2785 10.0651C12.2411 10.0799 12.2075 10.091 12.1738 10.1021C11.6464 9.39216 11.0592 8.72658 10.4121 8.11647C13.5166 6.54497 17.1484 6.35639 20.3988 7.5951C20.7466 7.72452 21.087 7.87612 21.4199 8.03882L21.5695 8.11277Z" fill="#F00500" style="fill:#F00500;fill:color(display-p3 0.9412 0.0196 0.0000);fill-opacity:1;"/>
<path d="M27.3594 22.1379C26.8881 23.4654 26.1812 24.6967 25.2648 25.769C24.7674 26.3458 24.2176 26.8746 23.6266 27.3553C22.2427 28.4572 20.6268 29.2448 18.9026 29.6589C16.995 30.1137 15.0051 30.1137 13.0976 29.6589C11.3696 29.2448 9.75748 28.4572 8.37356 27.3553C7.78259 26.8746 7.23277 26.3458 6.7353 25.769C4.09838 22.6889 3.29795 18.4588 4.64072 14.6465C4.89507 13.9403 5.21299 13.2599 5.59451 12.6128C5.7703 12.317 5.98724 11.9842 6.09197 11.8474C6.45104 13.3745 6.8924 14.7168 7.05697 15.2012C7.04575 15.227 7.03079 15.2566 7.01583 15.2825C6.14433 17.0278 5.67305 18.7102 5.56084 20.4999C5.56084 20.5221 5.5571 20.5479 5.5571 20.5701C5.52718 21.1063 5.54214 21.3614 5.63191 21.6979C5.91243 22.7517 6.77645 23.9128 8.13044 25.0517C10.3485 26.9153 13.3557 28.2612 15.6335 28.4165C18.0086 28.5755 21.5133 27.2037 23.8473 25.1996C24.2138 24.8779 24.5579 24.5377 24.8796 24.1753C25.1115 23.9091 25.4556 23.4506 25.4294 23.4506C25.4219 23.4506 25.4294 23.4432 25.4444 23.4358C25.4556 23.4284 25.4668 23.4173 25.4593 23.4099C25.4556 23.4062 25.4631 23.3951 25.4743 23.3914C25.4855 23.3877 25.493 23.3803 25.4893 23.3729C25.4855 23.3656 25.4893 23.3582 25.5042 23.3545C25.5154 23.3508 25.5192 23.3397 25.5154 23.3323C25.5117 23.3249 25.5154 23.3175 25.5229 23.3175C25.5304 23.3175 25.5379 23.3064 25.5379 23.299C25.5379 23.2916 25.5454 23.2805 25.5528 23.2805C25.5603 23.2805 25.5678 23.2731 25.5678 23.2657C25.579 23.2361 25.5977 23.2066 25.6164 23.1807C25.6725 23.0956 25.897 22.7 25.9269 22.6334C26.1401 22.1564 26.2747 21.7312 26.3383 21.306C26.3682 21.1026 26.3869 20.7291 26.372 20.6404C26.3682 20.6256 26.3682 20.5997 26.3645 20.559C26.357 20.4851 26.3533 20.3742 26.3458 20.2632C26.3383 20.0968 26.3234 19.8639 26.3121 19.7493C26.1513 18.0705 25.7174 16.6987 24.8946 15.2455C24.8609 15.1901 24.831 15.1346 24.8123 15.0902C24.8048 15.0791 24.801 15.068 24.7973 15.0606V15.0606C24.9133 14.7168 25.3883 13.2784 25.766 11.6329L25.7735 11.6403L25.8296 11.7143C25.9269 11.8437 26.185 12.2283 26.3009 12.4131C26.8283 13.2636 27.2397 14.1769 27.5315 15.1309C28.2085 17.4271 28.1524 19.875 27.3594 22.1379Z" fill="#F00500" style="fill:#F00500;fill:color(display-p3 0.9412 0.0196 0.0000);fill-opacity:1;"/>
<path d="M22.5043 17.7192C22.493 17.7784 22.3172 17.9559 22.1414 18.0853C21.6253 18.4588 20.7014 18.8064 19.7626 18.9727C19.2277 19.0689 18.6929 19.0837 18.532 19.006C18.4273 18.9543 18.4123 18.9136 18.4497 18.7805C18.5283 18.5031 18.7826 18.1999 19.1791 17.9152C19.3811 17.771 20.2002 17.2792 20.5817 17.0722C21.2101 16.732 21.7188 16.5286 22.0629 16.4805C22.1714 16.4657 22.3023 16.462 22.3434 16.4805C22.4107 16.5064 22.4856 16.7024 22.5155 16.939C22.5304 17.0648 22.523 17.6194 22.5043 17.7192Z" fill="black" style="fill:black;fill-opacity:1;"/>
<path d="M13.6922 18.9432C13.6697 18.9876 13.5575 19.0357 13.4303 19.0541C13.3032 19.0726 12.9142 19.0615 12.6935 19.0357C11.9006 18.9321 11.059 18.6918 10.4456 18.396C10.1015 18.2296 9.8546 18.0632 9.67133 17.882L9.5666 17.7748L9.55538 17.6343C9.53667 17.3902 9.54042 17.0057 9.57034 16.8688C9.58904 16.7542 9.63018 16.6433 9.68629 16.5434C9.71621 16.5065 9.71621 16.5065 9.85086 16.5065C10.0154 16.5065 10.1538 16.5324 10.3782 16.6026C10.8383 16.7431 11.5228 17.0833 12.3569 17.5788C13.0451 17.9855 13.3032 18.1852 13.5014 18.4588C13.6361 18.6289 13.7258 18.8693 13.6922 18.9432Z" fill="black" style="fill:black;fill-opacity:1;"/>
<path d="M18.9887 24.0902C18.9887 24.1013 18.9438 24.2788 18.8877 24.4896C18.8316 24.7004 18.7867 24.8705 18.7867 24.8778C18.7456 24.8815 18.7082 24.8852 18.667 24.8815H18.5473L18.3828 25.2661C18.293 25.4769 18.2107 25.6728 18.1995 25.7024L18.177 25.7542L18.0985 25.6285L18.02 25.5027V24.4785L17.99 24.4859C17.9264 24.5007 17.4739 24.5598 17.2756 24.5783C16.4565 24.6597 15.6336 24.6412 14.8182 24.5266C14.6873 24.5081 14.5751 24.4933 14.5714 24.497C14.5676 24.5007 14.5714 24.7373 14.5789 25.0294L14.5901 25.5545L14.5265 25.6507C14.4928 25.7024 14.4592 25.7468 14.4592 25.7505C14.448 25.7616 14.4105 25.7024 14.3245 25.5323C14.231 25.3548 14.1637 25.1663 14.1151 24.9703L14.0889 24.8631L13.9729 24.8705L13.857 24.8815L13.8271 24.7447C13.8121 24.6708 13.7934 24.5562 13.7859 24.4933L13.7747 24.375L13.6774 24.2899C13.6213 24.2419 13.5652 24.1938 13.554 24.1864C13.5353 24.1716 13.5278 24.1457 13.5278 24.1235V24.0792L13.9954 24.0829L14.4629 24.0866L14.4779 24.1346L14.4928 24.1827L14.6537 24.1901C14.7434 24.1938 15.0277 24.2012 15.282 24.2086L15.7496 24.2197L15.8693 24.0348L15.9927 23.8499H16.1498L16.1461 23.4653L16.1423 23.0808L15.9366 22.992C15.2746 22.7036 14.8856 22.3745 14.7397 21.9752C14.7098 21.8939 14.7098 21.8643 14.7023 21.4945C14.6986 21.1284 14.6986 21.0952 14.7247 21.0138C14.7771 20.8289 14.923 20.6847 15.11 20.6367C15.1736 20.6182 15.3419 20.6182 16.2246 20.6182L17.2644 20.6219L17.3804 20.6773C17.5188 20.7439 17.5823 20.792 17.6609 20.8955C17.7507 21.0138 17.7768 21.1063 17.7768 21.3318C17.7768 21.6535 17.7544 21.9308 17.7207 22.0418C17.6721 22.1934 17.5973 22.3376 17.5038 22.467C17.3168 22.7036 16.9764 22.9403 16.666 23.0475L16.5762 23.0808L16.5799 23.469L16.5837 23.8573L16.666 23.8647L16.7482 23.8721L16.8605 24.0385L16.9689 24.2049H17.4701C17.7469 24.2049 17.99 24.2086 18.0125 24.2123C18.0499 24.2197 18.0574 24.216 18.0948 24.1531L18.1396 24.0866H18.5698C18.8914 24.0718 18.9887 24.0792 18.9887 24.0902Z" fill="black" style="fill:black;fill-opacity:1;"/>
<path d="M17.0137 25.1515C16.9427 25.1921 16.8941 25.2106 16.8828 25.2032C16.8716 25.1995 16.8192 25.1552 16.7631 25.1145L16.6622 25.0331L16.5574 25.1441C16.3293 25.3881 16.3218 25.3992 16.2545 25.4029C16.1497 25.414 16.1273 25.3955 16.0001 25.2069C15.9328 25.1108 15.8804 25.0294 15.8804 25.0294C15.8804 25.0294 15.8318 25.022 15.7757 25.0183L15.671 25.0072L15.6223 25.1071L15.5737 25.2069L15.4877 25.181C15.4204 25.1589 15.353 25.133 15.2895 25.1034L15.1772 25.0479V24.8372L16.1722 24.8409L17.1671 24.8446L17.1708 24.9444C17.1746 25.0627 17.1783 25.059 17.0137 25.1515Z" fill="black" style="fill:black;fill-opacity:1;"/>
<path fill-rule="evenodd" clip-rule="evenodd" d="M26.3644 20.6403C26.3621 20.6312 26.3612 20.6178 26.36 20.5993C26.3592 20.5879 26.3583 20.5745 26.3569 20.559C25.4592 20.4628 22.8971 20.4037 20.5183 22.3449C20.5183 22.3449 19.7515 18.8691 16.1608 18.8691C12.5701 18.8691 11.2385 22.3449 11.2385 22.3449C9.22623 20.204 6.5332 20.3593 5.56071 20.4998C5.56071 20.5109 5.55978 20.5229 5.55884 20.5349C5.55791 20.5469 5.55697 20.559 5.55697 20.5701C5.52705 21.1062 5.54201 21.3614 5.63178 21.6978C5.9123 22.7517 6.77632 23.9127 8.13031 25.0516C10.3483 26.9152 13.3555 28.2611 15.6334 28.4165C18.0085 28.5754 21.5132 27.2036 23.8471 25.1995C24.2137 24.8778 24.5578 24.5376 24.8795 24.1753C25.1114 23.909 25.4555 23.4505 25.4293 23.4505C25.4218 23.4505 25.4293 23.4431 25.4443 23.4357C25.4555 23.4283 25.4667 23.4172 25.4592 23.4098C25.4555 23.4061 25.463 23.3951 25.4742 23.3914C25.4854 23.3877 25.4929 23.3803 25.4891 23.3729C25.4854 23.3655 25.4891 23.3581 25.5041 23.3544C25.5153 23.3507 25.5191 23.3396 25.5153 23.3322C25.5116 23.3248 25.5153 23.3174 25.5228 23.3174C25.5303 23.3174 25.5378 23.3063 25.5378 23.2989C25.5378 23.2915 25.5452 23.2804 25.5527 23.2804C25.5602 23.2804 25.5677 23.273 25.5677 23.2656C25.5789 23.2361 25.5976 23.2065 25.6163 23.1806C25.6724 23.0955 25.8968 22.6999 25.9268 22.6333C26.1399 22.1563 26.2746 21.7311 26.3382 21.3059C26.3606 21.1025 26.3793 20.7291 26.3644 20.6403ZM17.0136 25.1514C16.9425 25.1921 16.8939 25.2106 16.8827 25.2032C16.8763 25.2011 16.8565 25.1857 16.8302 25.1654L16.8302 25.1654L16.8302 25.1654C16.8104 25.1501 16.7871 25.1319 16.763 25.1145L16.662 25.0331L16.5573 25.144L16.5289 25.1744C16.3283 25.389 16.3187 25.3993 16.2543 25.4029C16.1496 25.414 16.1271 25.3955 15.9999 25.2069C15.9326 25.1108 15.8803 25.0294 15.8803 25.0294C15.8803 25.0294 15.8316 25.022 15.7755 25.0183L15.6708 25.0072L15.6222 25.1071L15.5735 25.2069L15.4875 25.181C15.4202 25.1588 15.3529 25.1329 15.2893 25.1034L15.1771 25.0479V24.8371L16.172 24.8408L17.1669 24.8445L17.1707 24.9444L17.1709 24.9522C17.1723 24.9963 17.1732 25.0226 17.1634 25.044C17.1491 25.0753 17.1118 25.0963 17.0199 25.1479L17.0136 25.1514ZM18.7827 24.8741C18.7827 24.8667 18.8276 24.6966 18.8837 24.4859L18.8897 24.4637C18.9433 24.2661 18.9889 24.0977 18.9997 24.1013C18.9997 24.0902 18.9024 24.0865 18.5695 24.0865H18.1394L18.0945 24.1531C18.0571 24.2159 18.0496 24.2196 18.0122 24.2122C17.9898 24.2085 17.7467 24.2048 17.4699 24.2048H16.9687L16.8602 24.0384L16.748 23.872L16.6657 23.8647L16.5834 23.8573L16.5797 23.469L16.576 23.0808L16.6657 23.0475C16.9762 22.9402 17.3165 22.7036 17.5036 22.4669C17.5971 22.3375 17.6719 22.1933 17.7205 22.0417C17.7542 21.9308 17.7766 21.6535 17.7766 21.3318C17.7766 21.1062 17.7504 21.0138 17.6606 20.8954C17.5821 20.7919 17.5185 20.7438 17.3801 20.6773L17.2642 20.6218L16.2244 20.6181C15.3416 20.6181 15.1733 20.6181 15.1097 20.6366C14.9227 20.6847 14.7769 20.8289 14.7245 21.0138C14.6983 21.0951 14.6983 21.1284 14.7021 21.4945L14.7025 21.517C14.7095 21.8655 14.7102 21.8955 14.7395 21.9752C14.8853 22.3745 15.2743 22.7036 15.9364 22.992L16.1421 23.0808L16.1458 23.4653L16.1496 23.8499H15.9925L15.869 24.0347L15.7493 24.2196L15.2818 24.2085C15.1995 24.2061 15.114 24.2037 15.0329 24.2015C14.8638 24.1967 14.7141 24.1925 14.6534 24.19L14.4926 24.1827L14.4776 24.1346L14.4627 24.0865L13.9951 24.0828L13.5276 24.0791V24.1235C13.5276 24.1457 13.5351 24.1716 13.5538 24.1863C13.565 24.1937 13.6211 24.2418 13.6772 24.2899L13.7745 24.3749L13.7857 24.4933C13.7932 24.5561 13.8119 24.6707 13.8268 24.7447L13.8567 24.8815L13.9727 24.8704L14.0886 24.863L14.1148 24.9702C14.1634 25.1662 14.2308 25.3548 14.3243 25.5323C14.4103 25.7024 14.4477 25.7615 14.4589 25.7505C14.4589 25.7486 14.4674 25.7366 14.48 25.7186C14.4926 25.7005 14.5094 25.6765 14.5263 25.6506L14.5898 25.5545L14.5786 25.0294C14.5711 24.7373 14.5674 24.5006 14.5711 24.497C14.5749 24.4933 14.6871 24.508 14.818 24.5265C15.6334 24.6412 16.4563 24.6596 17.2754 24.5783C17.4736 24.5598 17.9262 24.5006 17.9898 24.4859L18.0197 24.4785V25.5027L18.0983 25.6284L18.1768 25.7541L18.1993 25.7024C18.2105 25.6728 18.2928 25.4768 18.3825 25.2661L18.5434 24.8778H18.6631C18.7025 24.8814 18.7385 24.8781 18.7776 24.8746L18.7827 24.8741Z" fill="white" style="fill:white;fill-opacity:1;"/>
<path fill-rule="evenodd" clip-rule="evenodd" d="M26.3344 20.2632C26.327 20.0968 26.312 19.8638 26.3008 19.7492C26.1399 18.0705 25.7061 16.6987 24.8832 15.2455C24.8495 15.19 24.8196 15.1346 24.8009 15.0902C24.7957 15.0825 24.7923 15.0747 24.7894 15.0682L24.7859 15.0606C24.9019 14.7167 25.3769 13.2783 25.7547 11.6329C26.2671 9.39952 26.5925 6.78898 25.5976 6.00508C25.5976 6.00508 23.877 5.87936 21.573 8.11274C20.9484 8.73024 20.3761 9.39952 19.8674 10.1132L19.7066 10.0614C18.779 9.76188 17.8177 9.577 16.849 9.51414C16.5572 9.49196 15.4688 9.49196 15.1135 9.51414C14.04 9.5844 13.2171 9.7434 12.2821 10.0651C12.2447 10.0799 12.211 10.091 12.1773 10.1021L12.1773 10.1021C11.6499 9.39212 11.0627 8.72655 10.4156 8.11643C8.01809 5.87197 6.23396 6.00138 6.23396 6.00138C5.17919 6.81117 5.53826 9.54003 6.08435 11.8474C6.44342 13.3745 6.88478 14.7167 7.04935 15.2011C7.03813 15.227 7.02317 15.2566 7.00821 15.2825C6.13671 17.0278 5.66543 18.7102 5.55322 20.4998C6.52945 20.3593 9.21874 20.2003 11.2348 22.345C11.2348 22.345 12.5663 18.8692 16.157 18.8692C19.7477 18.8692 20.5145 22.345 20.5145 22.345C22.8933 20.4037 25.4555 20.4666 26.3531 20.559C26.3494 20.4851 26.3419 20.3742 26.3344 20.2633L26.3344 20.2632V20.2632ZM7.75627 13.8071C7.75627 13.8071 6.35739 10.3498 6.71646 8.37527C6.77631 8.04248 6.88852 7.75037 7.06431 7.52851C7.06431 7.52851 8.65021 7.68381 11.2086 10.494C11.2086 10.494 10.7223 10.727 10.0715 11.2225C10.0715 11.2225 10.0678 11.2262 10.064 11.2262C9.35713 11.7623 8.45197 12.6128 7.75627 13.8071ZM13.4303 19.0541C13.5575 19.0356 13.6697 18.9875 13.6922 18.9431C13.7258 18.8692 13.6361 18.6288 13.5014 18.4587C13.3032 18.1851 13.0451 17.9854 12.3569 17.5787C11.5228 17.0832 10.8383 16.743 10.3782 16.6025C10.1538 16.5323 10.0154 16.5064 9.85085 16.5064C9.75561 16.5064 9.72774 16.5064 9.70899 16.5195C9.70123 16.5249 9.69503 16.5325 9.68628 16.5434C9.63017 16.6432 9.58903 16.7541 9.57033 16.8688C9.5404 17.0056 9.53666 17.3901 9.55536 17.6342L9.56659 17.7747L9.67131 17.8819C9.85459 18.0631 10.1015 18.2295 10.4456 18.3959C11.059 18.6917 11.9005 18.932 12.6935 19.0356C12.9142 19.0615 13.3032 19.0725 13.4303 19.0541ZM22.5043 17.7192C22.4931 17.7784 22.3173 17.9559 22.1415 18.0853C21.6254 18.4587 20.7015 18.8063 19.7627 18.9727C19.2278 19.0688 18.693 19.0836 18.5321 19.006C18.4274 18.9542 18.4124 18.9135 18.4498 18.7804C18.5284 18.5031 18.7827 18.1999 19.1792 17.9152C19.3812 17.771 20.2003 17.2792 20.5818 17.0721C21.2102 16.7319 21.7189 16.5286 22.063 16.4805C22.1715 16.4657 22.3024 16.462 22.3435 16.4805C22.4108 16.5064 22.4856 16.7024 22.5156 16.939C22.5305 17.0647 22.5231 17.6194 22.5043 17.7192ZM21.876 11.2188L21.8835 11.2225C22.7886 11.9324 23.5479 12.8124 24.1127 13.8071C24.1127 13.8071 25.4629 10.3461 25.1151 8.37157C25.0552 8.03878 24.9468 7.75037 24.7785 7.52481C24.7785 7.52481 23.2487 7.68011 20.7763 10.4903C20.7763 10.4903 21.2476 10.7233 21.876 11.2188Z" fill="#FFA409" style="fill:#FFA409;fill:color(display-p3 1.0000 0.6431 0.0353);fill-opacity:1;"/>
<path d="M25.1189 8.37154C24.8271 8.33456 23.447 8.32717 21.8835 11.2224L21.876 11.2187C21.2476 10.7232 20.7764 10.4903 20.7764 10.4903C23.2487 7.68008 24.7785 7.52478 24.7785 7.52478C24.9506 7.75034 25.059 8.03875 25.1189 8.37154Z" fill="#FF9300" style="fill:#FF9300;fill:color(display-p3 1.0000 0.5765 0.0000);fill-opacity:1;"/>
<path d="M24.1163 13.807C23.5477 12.8087 22.7922 11.9323 21.8833 11.2224C23.4468 8.32711 24.8232 8.3345 25.1187 8.37148V8.37148C25.4665 10.3497 24.1163 13.807 24.1163 13.807Z" fill="#FF8300" style="fill:#FF8300;fill:color(display-p3 1.0000 0.5137 0.0000);fill-opacity:1;"/>
<path d="M25.2277 8.42955C25.1914 8.41864 25.155 8.40773 25.1187 8.39682L25.2277 8.42955Z" fill="#FF8300" style="fill:#FF8300;fill:color(display-p3 1.0000 0.5137 0.0000);fill-opacity:1;"/>
<path d="M11.2088 10.4903C11.2088 10.4903 10.7225 10.7232 10.0717 11.2187C10.0717 11.2187 10.068 11.2224 10.0642 11.2224C8.44466 8.32347 7.0196 8.33456 6.71289 8.37154C6.77274 8.03875 6.88495 7.74664 7.06074 7.52478C7.06448 7.52478 8.65038 7.68008 11.2088 10.4903Z" fill="#FF9300" style="fill:#FF9300;fill:color(display-p3 1.0000 0.5765 0.0000);fill-opacity:1;"/>
<path d="M10.068 11.2224C9.35732 11.7622 8.45216 12.609 7.75646 13.807C7.75646 13.807 6.35758 10.3497 6.71666 8.37148V8.37148C7.01962 8.3345 8.44842 8.32711 10.068 11.2224Z" fill="#FF8300" style="fill:#FF8300;fill:color(display-p3 1.0000 0.5137 0.0000);fill-opacity:1;"/>
<path d="M6.76583 8.39682C6.73174 8.40773 6.69083 8.41864 6.65674 8.42955L6.76583 8.39682Z" fill="#FF8300" style="fill:#FF8300;fill:color(display-p3 1.0000 0.5137 0.0000);fill-opacity:1;"/>
<path d="M20.3312 15.7262C20.3312 15.7262 19.1343 15.8001 19.2839 14.8757C19.4336 13.9513 20.3686 13.8404 20.6305 13.8773C20.8923 13.9143 21.9396 14.2841 21.7525 15.0606C21.5655 15.8371 21.3037 15.6892 21.1541 15.7262C21.0045 15.7631 20.3312 15.7262 20.3312 15.7262Z" fill="white" style="fill:white;fill-opacity:1;"/>
<path d="M11.5041 15.7262C11.5041 15.7262 10.3072 15.8001 10.4568 14.8757C10.6064 13.9513 11.5415 13.8404 11.8033 13.8773C12.0651 13.9143 13.1124 14.2841 12.9254 15.0606C12.7384 15.8371 12.4766 15.6892 12.3269 15.7262C12.1773 15.7631 11.5041 15.7262 11.5041 15.7262Z" fill="white" style="fill:white;fill-opacity:1;"/>
</svg>
